# xmcd
#
# Track frame offsets:
#	150
#	17976
#	37906
#	56227
#	72604
#	92165
#	109795
#	128529
#	146219
#	163120
#	180946
#	200876
#	219197
#	235574
#	255135
#	272765
#	291499
#	309189
#
# Disc length: 4347 seconds
#
# Revision: 2
# Processed by: cddbd v1.5.2PL0 Copyright (c) Steve Scherf et al.
# Submitted via: audiograbber 1.83.01
#
DISCID=0510f912
DTITLE=Chart Hits Country - PHMC0907
DYEAR=2009
DGENRE=Karaoke
TTITLE0=Keith Urban - Kiss A Girl
TTITLE1=Brad Paisley - Then
TTITLE2=Lee Ann Womack - Solitary Thinkin'
TTITLE3=Toby Keith - Lost You Anyway
TTITLE4=Billy Ray Cyrus - Back To Tennessee
TTITLE5=Love and Theft - Runaway
TTITLE6=David Nail - Red Light
TTITLE7=Jonathon Singleton and The Groove - Living In Paradise
TTITLE8=Holly Williams - Keep The Change
TTITLE9=Kiss A Girl - Urban, Keith (w - vocals)
TTITLE10=Then - Paisley, Brad (w - vocals)
TTITLE11=Solitary Thinkin' - Womack, Lee Ann (w - vocals)
TTITLE12=Lost You Anyway - Keith, Toby (w - vocals)
TTITLE13=Back To Tennessee - Cyrus, Billy Ray (w - vocals)
TTITLE14=Runaway - Love and Theft (w - vocals)
TTITLE15=Red Light - Nail, David (w - vocals)
TTITLE16=Living In Paradise - Singleton, Jonathon and The Groove (w - vocals)
TTITLE17=Keep The Change - Williams, Holly (w - vocals)
EXTD=
EXTT0=
EXTT1=
EXTT2=
EXTT3=
EXTT4=
EXTT5=
EXTT6=
EXTT7=
EXTT8=
EXTT9=
EXTT10=
EXTT11=
EXTT12=
EXTT13=
EXTT14=
EXTT15=
EXTT16=
EXTT17=
PLAYORDER=
